<?xml version="1.0" encoding="UTF-8"?>
<svg version="1.1" xmlns="http://www.w3.org/2000/svg" width="225" height="225">
<path d="M0 0 C74.25 0 148.5 0 225 0 C225 74.25 225 148.5 225 225 C150.75 225 76.5 225 0 225 C0 150.75 0 76.5 0 0 Z " fill="#DC3030" transform="translate(0,0)"/>
<path d="M0 0 C7.26544263 5.58593106 11.6664813 12.42951103 15.28125 20.75390625 C16.52261719 20.7796875 17.76398438 20.80546875 19.04296875 20.83203125 C20.68493028 20.88832707 22.326856 20.94567408 23.96875 21.00390625 C24.78537109 21.01808594 25.60199219 21.03226563 26.44335938 21.046875 C31.61178889 21.25612316 34.54825247 21.83683586 38.28125 25.75390625 C39.43190495 28.05521615 39.46044324 29.49870465 39.55335999 32.06277466 C39.58839127 32.96795837 39.62342255 33.87314209 39.65951538 34.80575562 C39.69332306 35.80200958 39.72713074 36.79826355 39.76196289 37.82470703 C39.8011232 38.87219116 39.84028351 39.91967529 39.88063049 40.99890137 C40.00962587 44.48218992 40.13189006 47.96567924 40.25390625 51.44921875 C40.34183721 53.87426906 40.43009354 56.29930759 40.5186615 58.72433472 C40.70390335 63.82377337 40.88596277 68.92331272 41.06567383 74.02294922 C41.29480704 80.52108232 41.53048615 87.0189565 41.76845646 93.51677132 C41.95172771 98.53567577 42.13204976 103.55468285 42.31146049 108.57372665 C42.39722094 110.9664467 42.48372899 113.35914008 42.57103157 115.75180435 C42.80407113 122.16829927 43.02215347 128.5847826 43.20332718 135.00296783 C43.25338855 136.77030301 43.30683961 138.53754722 43.36454391 140.30464935 C43.43338661 142.52847269 43.48147419 144.7515682 43.52124023 146.97607422 C43.54846664 148.16087372 43.57569305 149.34567322 43.60374451 150.56637573 C43.1041121 155.50473442 41.4038981 158.71545675 37.78125 162.06640625 C34.2718736 164.43523532 31.65853528 164.8803225 27.52581787 164.90107727 C26.05812202 164.91181023 26.05812202 164.91181023 24.56077576 164.92276001 C22.95239586 164.92679337 22.95239586 164.92679337 21.31152344 164.9309082 C20.18116165 164.9374794 19.05079987 164.9440506 17.88618469 164.95082092 C14.13766415 164.97056527 10.38918369 164.98221889 6.640625 164.9921875 C5.36130348 164.99626303 4.08198196 165.00033855 2.76389313 165.00453758 C-3.30856397 165.02325091 -9.38100096 165.03781573 -15.45348096 165.04614955 C-22.45420637 165.05591685 -29.45461516 165.08222485 -36.45522904 165.12265044 C-42.52554391 165.15649627 -48.59572608 165.16829842 -54.66613007 165.17235374 C-57.24491269 165.17722708 -59.82369176 165.18886216 -62.40241241 165.20739174 C-66.0123468 165.23171947 -69.62145417 165.23082923 -73.23144531 165.22387695 C-74.82767982 165.24309204 -74.82767982 165.24309204 -76.4561615 165.26269531 C-82.77051616 165.21839521 -86.5849067 164.51597854 -91.71875 160.75390625 C-100.68495357 150.17838409 -95.31419739 126.21838699 -94.84375 113.19140625 C-94.79862274 111.93687653 -94.75349548 110.6823468 -94.70700073 109.38980103 C-94.31323566 98.44804651 -94.31323566 98.44804651 -94.14054871 93.69865417 C-93.85684394 85.8364989 -93.59713871 77.97405327 -93.36071777 70.1103363 C-93.2123266 65.21897829 -93.05314135 60.328004 -92.89227295 55.43704224 C-92.81854418 53.11563978 -92.74969852 50.79407686 -92.68585205 48.47238159 C-92.59642268 45.24665303 -92.4896555 42.02193172 -92.37890625 38.796875 C-92.35698715 37.84746033 -92.33506805 36.89804565 -92.31248474 35.91986084 C-92.12864454 31.10440514 -91.90590072 27.62074298 -88.71875 23.75390625 C-85.56560215 21.65180768 -84.85771919 21.51043015 -81.26953125 21.55859375 C-79.99819336 21.56826172 -79.99819336 21.56826172 -78.70117188 21.578125 C-77.37956055 21.60326172 -77.37956055 21.60326172 -76.03125 21.62890625 C-74.69223633 21.64244141 -74.69223633 21.64244141 -73.32617188 21.65625 C-71.12342686 21.67980877 -68.92122412 21.71270296 -66.71875 21.75390625 C-66.61433594 21.03847656 -66.50992188 20.32304688 -66.40234375 19.5859375 C-64.11457459 10.10803671 -56.75806304 2.76852726 -48.71875 -2.24609375 C-32.06432299 -10.48089675 -15.97297153 -10.34612929 0 0 Z " fill="#FEFDFD" transform="translate(138.71875,34.24609375)"/>
<path d="M0 0 C-1.36266644 4.03805866 -3.1409151 6.54368118 -6.0625 9.625 C-9.47912271 13.31849652 -12.791196 17.06126477 -16 20.9375 C-16.7425 21.83339844 -17.485 22.72929688 -18.25 23.65234375 C-20.16066254 25.95958409 -20.16066254 25.95958409 -21 29 C-19.66003546 31.08063302 -18.30995008 32.90684201 -16.75 34.8125 C-16.30342041 35.37638428 -15.85684082 35.94026855 -15.39672852 36.52124023 C-13.94141394 38.35596079 -12.47222496 40.17882781 -11 42 C-9.46561687 43.90327663 -7.933754 45.80833724 -6.40917969 47.71948242 C-5.44397402 48.92823119 -4.47216409 50.13174205 -3.49316406 51.3293457 C0.56902021 56.40263812 0.56902021 56.40263812 1 60 C-4.40711336 61.2008005 -9.70649323 62.04412069 -15 60 C-20.31180039 55.5315083 -23.83335192 49.27332461 -27.45751953 43.43310547 C-29.58270841 40.08083697 -31.94784393 36.94919289 -34.375 33.8125 C-35.08398438 32.87019531 -35.79296875 31.92789063 -36.5234375 30.95703125 C-37.01070313 30.31121094 -37.49796875 29.66539062 -38 29 C-33.31530305 22.66932844 -28.51107817 16.4396416 -23.578125 10.30078125 C-22.069664 8.41199551 -20.75750561 6.6068841 -19.484375 4.54296875 C-15.10516883 -2.26143072 -7.18214559 -0.57566816 0 0 Z " fill="#DD3131" transform="translate(142,100)"/>
<path d="M0 0 C6.28564231 3.92591613 11.91051169 8.84113124 15.3515625 15.46875 C15.3515625 16.12875 15.3515625 16.78875 15.3515625 17.46875 C-4.7784375 17.46875 -24.9084375 17.46875 -45.6484375 17.46875 C-42.05871409 8.49444148 -36.35784809 3.43876401 -27.6484375 -0.53125 C-26.88144531 -0.89734375 -26.11445312 -1.2634375 -25.32421875 -1.640625 C-17.52974589 -4.23498969 -7.39989282 -3.46483276 0 0 Z " fill="#DC2E2E" transform="translate(127.6484375,38.53125)"/>
<path d="M0 0 C3.96 0 7.92 0 12 0 C12 19.8 12 39.6 12 60 C8.04 60 4.08 60 0 60 C0 40.2 0 20.4 0 0 Z " fill="#DC2E2E" transform="translate(91,100)"/>
</svg>
